<mxfile host="app.diagrams.net" modified="2021-10-12T16:37:01.984Z" agent="5.0 (X11; Linux x86_64) AppleWebKit/537.36 (KHTML, like Gecko) Chrome/94.0.4606.81 Safari/537.36" etag="l-CCVL8fQ4U0mQfGXeAk" version="15.5.0" type="github">
  <diagram id="tiSjidzDT6nD-PYoWVeS" name="Page-1">
    <mxGraphModel dx="2332" dy="1212" grid="1" gridSize="10" guides="1" tooltips="1" connect="1" arrows="1" fold="1" page="1" pageScale="1" pageWidth="827" pageHeight="1169" math="0" shadow="0">
      <root>
        <mxCell id="0" />
        <mxCell id="1" parent="0" />
        <mxCell id="HHhCgAAwEOyWhu86Y_bV-1" value="«interface»&lt;br&gt;&lt;b&gt;&lt;i&gt;IImage&lt;/i&gt;&lt;br&gt;&lt;/b&gt;" style="html=1;" vertex="1" parent="1">
          <mxGeometry x="935" y="700" width="150" height="120" as="geometry" />
        </mxCell>
        <mxCell id="HHhCgAAwEOyWhu86Y_bV-2" value="«interface»&lt;br&gt;&lt;b&gt;&lt;i&gt;IText&lt;/i&gt;&lt;/b&gt;" style="html=1;" vertex="1" parent="1">
          <mxGeometry x="694" y="700" width="166" height="120" as="geometry" />
        </mxCell>
        <mxCell id="HHhCgAAwEOyWhu86Y_bV-3" value="AbstractFactory" style="swimlane;fontStyle=1;align=center;verticalAlign=top;childLayout=stackLayout;horizontal=1;startSize=26;horizontalStack=0;resizeParent=1;resizeParentMax=0;resizeLast=0;collapsible=1;marginBottom=0;" vertex="1" parent="1">
          <mxGeometry x="760" y="110" width="160" height="80" as="geometry" />
        </mxCell>
        <mxCell id="HHhCgAAwEOyWhu86Y_bV-5" value="" style="line;strokeWidth=1;fillColor=none;align=left;verticalAlign=middle;spacingTop=-1;spacingLeft=3;spacingRight=3;rotatable=0;labelPosition=right;points=[];portConstraint=eastwest;" vertex="1" parent="HHhCgAAwEOyWhu86Y_bV-3">
          <mxGeometry y="26" width="160" height="8" as="geometry" />
        </mxCell>
        <mxCell id="HHhCgAAwEOyWhu86Y_bV-6" value="+ createText(type): IText&#xa;+ createImage(): IImage&#xa;" style="text;strokeColor=none;fillColor=none;align=left;verticalAlign=top;spacingLeft=4;spacingRight=4;overflow=hidden;rotatable=0;points=[[0,0.5],[1,0.5]];portConstraint=eastwest;fontStyle=2" vertex="1" parent="HHhCgAAwEOyWhu86Y_bV-3">
          <mxGeometry y="34" width="160" height="46" as="geometry" />
        </mxCell>
        <mxCell id="HHhCgAAwEOyWhu86Y_bV-11" value="ColorFactory" style="swimlane;fontStyle=1;align=center;verticalAlign=top;childLayout=stackLayout;horizontal=1;startSize=26;horizontalStack=0;resizeParent=1;resizeParentMax=0;resizeLast=0;collapsible=1;marginBottom=0;" vertex="1" parent="1">
          <mxGeometry x="520" y="270" width="160" height="80" as="geometry" />
        </mxCell>
        <mxCell id="HHhCgAAwEOyWhu86Y_bV-37" value="Extends" style="endArrow=block;endSize=16;endFill=0;html=1;rounded=0;edgeStyle=orthogonalEdgeStyle;entryX=0.5;entryY=1;entryDx=0;entryDy=0;" edge="1" parent="HHhCgAAwEOyWhu86Y_bV-11" target="HHhCgAAwEOyWhu86Y_bV-3">
          <mxGeometry width="160" relative="1" as="geometry">
            <mxPoint x="80" as="sourcePoint" />
            <mxPoint x="240" as="targetPoint" />
            <Array as="points">
              <mxPoint x="80" y="-30" />
              <mxPoint x="320" y="-30" />
            </Array>
          </mxGeometry>
        </mxCell>
        <mxCell id="HHhCgAAwEOyWhu86Y_bV-12" value="" style="line;strokeWidth=1;fillColor=none;align=left;verticalAlign=middle;spacingTop=-1;spacingLeft=3;spacingRight=3;rotatable=0;labelPosition=right;points=[];portConstraint=eastwest;" vertex="1" parent="HHhCgAAwEOyWhu86Y_bV-11">
          <mxGeometry y="26" width="160" height="8" as="geometry" />
        </mxCell>
        <mxCell id="HHhCgAAwEOyWhu86Y_bV-13" value="+ createText(type): IText&#xa;+ createImage(): IImage&#xa;" style="text;strokeColor=none;fillColor=none;align=left;verticalAlign=top;spacingLeft=4;spacingRight=4;overflow=hidden;rotatable=0;points=[[0,0.5],[1,0.5]];portConstraint=eastwest;fontStyle=0" vertex="1" parent="HHhCgAAwEOyWhu86Y_bV-11">
          <mxGeometry y="34" width="160" height="46" as="geometry" />
        </mxCell>
        <mxCell id="HHhCgAAwEOyWhu86Y_bV-14" value="GreyFactory" style="swimlane;fontStyle=1;align=center;verticalAlign=top;childLayout=stackLayout;horizontal=1;startSize=26;horizontalStack=0;resizeParent=1;resizeParentMax=0;resizeLast=0;collapsible=1;marginBottom=0;" vertex="1" parent="1">
          <mxGeometry x="970" y="270" width="160" height="80" as="geometry" />
        </mxCell>
        <mxCell id="HHhCgAAwEOyWhu86Y_bV-38" value="Extends" style="endArrow=block;endSize=16;endFill=0;html=1;rounded=0;edgeStyle=orthogonalEdgeStyle;" edge="1" parent="HHhCgAAwEOyWhu86Y_bV-14">
          <mxGeometry width="160" relative="1" as="geometry">
            <mxPoint x="70" as="sourcePoint" />
            <mxPoint x="-130" y="-80" as="targetPoint" />
            <Array as="points">
              <mxPoint x="70" y="-30" />
              <mxPoint x="-130" y="-30" />
            </Array>
          </mxGeometry>
        </mxCell>
        <mxCell id="HHhCgAAwEOyWhu86Y_bV-15" value="" style="line;strokeWidth=1;fillColor=none;align=left;verticalAlign=middle;spacingTop=-1;spacingLeft=3;spacingRight=3;rotatable=0;labelPosition=right;points=[];portConstraint=eastwest;" vertex="1" parent="HHhCgAAwEOyWhu86Y_bV-14">
          <mxGeometry y="26" width="160" height="8" as="geometry" />
        </mxCell>
        <mxCell id="HHhCgAAwEOyWhu86Y_bV-16" value="+ createText(type): IText&#xa;+ createImage(): IImage&#xa;" style="text;strokeColor=none;fillColor=none;align=left;verticalAlign=top;spacingLeft=4;spacingRight=4;overflow=hidden;rotatable=0;points=[[0,0.5],[1,0.5]];portConstraint=eastwest;fontStyle=0" vertex="1" parent="HHhCgAAwEOyWhu86Y_bV-14">
          <mxGeometry y="34" width="160" height="46" as="geometry" />
        </mxCell>
        <mxCell id="HHhCgAAwEOyWhu86Y_bV-17" value="ColorText" style="swimlane;fontStyle=1;align=center;verticalAlign=top;childLayout=stackLayout;horizontal=1;startSize=26;horizontalStack=0;resizeParent=1;resizeParentMax=0;resizeLast=0;collapsible=1;marginBottom=0;" vertex="1" parent="1">
          <mxGeometry x="420" y="380" width="160" height="60" as="geometry" />
        </mxCell>
        <mxCell id="HHhCgAAwEOyWhu86Y_bV-19" value="" style="line;strokeWidth=1;fillColor=none;align=left;verticalAlign=middle;spacingTop=-1;spacingLeft=3;spacingRight=3;rotatable=0;labelPosition=right;points=[];portConstraint=eastwest;" vertex="1" parent="HHhCgAAwEOyWhu86Y_bV-17">
          <mxGeometry y="26" width="160" height="8" as="geometry" />
        </mxCell>
        <mxCell id="HHhCgAAwEOyWhu86Y_bV-20" value="+ print(type): type" style="text;strokeColor=none;fillColor=none;align=left;verticalAlign=top;spacingLeft=4;spacingRight=4;overflow=hidden;rotatable=0;points=[[0,0.5],[1,0.5]];portConstraint=eastwest;" vertex="1" parent="HHhCgAAwEOyWhu86Y_bV-17">
          <mxGeometry y="34" width="160" height="26" as="geometry" />
        </mxCell>
        <mxCell id="HHhCgAAwEOyWhu86Y_bV-21" value="ColorIImage" style="swimlane;fontStyle=1;align=center;verticalAlign=top;childLayout=stackLayout;horizontal=1;startSize=26;horizontalStack=0;resizeParent=1;resizeParentMax=0;resizeLast=0;collapsible=1;marginBottom=0;" vertex="1" parent="1">
          <mxGeometry x="610" y="380" width="160" height="60" as="geometry" />
        </mxCell>
        <mxCell id="HHhCgAAwEOyWhu86Y_bV-22" value="" style="line;strokeWidth=1;fillColor=none;align=left;verticalAlign=middle;spacingTop=-1;spacingLeft=3;spacingRight=3;rotatable=0;labelPosition=right;points=[];portConstraint=eastwest;" vertex="1" parent="HHhCgAAwEOyWhu86Y_bV-21">
          <mxGeometry y="26" width="160" height="8" as="geometry" />
        </mxCell>
        <mxCell id="HHhCgAAwEOyWhu86Y_bV-23" value="+ view(type): string" style="text;strokeColor=none;fillColor=none;align=left;verticalAlign=top;spacingLeft=4;spacingRight=4;overflow=hidden;rotatable=0;points=[[0,0.5],[1,0.5]];portConstraint=eastwest;" vertex="1" parent="HHhCgAAwEOyWhu86Y_bV-21">
          <mxGeometry y="34" width="160" height="26" as="geometry" />
        </mxCell>
        <mxCell id="HHhCgAAwEOyWhu86Y_bV-24" value="GreyText" style="swimlane;fontStyle=1;align=center;verticalAlign=top;childLayout=stackLayout;horizontal=1;startSize=26;horizontalStack=0;resizeParent=1;resizeParentMax=0;resizeLast=0;collapsible=1;marginBottom=0;" vertex="1" parent="1">
          <mxGeometry x="874" y="380" width="160" height="60" as="geometry" />
        </mxCell>
        <mxCell id="HHhCgAAwEOyWhu86Y_bV-25" value="" style="line;strokeWidth=1;fillColor=none;align=left;verticalAlign=middle;spacingTop=-1;spacingLeft=3;spacingRight=3;rotatable=0;labelPosition=right;points=[];portConstraint=eastwest;" vertex="1" parent="HHhCgAAwEOyWhu86Y_bV-24">
          <mxGeometry y="26" width="160" height="8" as="geometry" />
        </mxCell>
        <mxCell id="HHhCgAAwEOyWhu86Y_bV-26" value="+ print(type): type" style="text;strokeColor=none;fillColor=none;align=left;verticalAlign=top;spacingLeft=4;spacingRight=4;overflow=hidden;rotatable=0;points=[[0,0.5],[1,0.5]];portConstraint=eastwest;" vertex="1" parent="HHhCgAAwEOyWhu86Y_bV-24">
          <mxGeometry y="34" width="160" height="26" as="geometry" />
        </mxCell>
        <mxCell id="HHhCgAAwEOyWhu86Y_bV-27" value="GreyIImage" style="swimlane;fontStyle=1;align=center;verticalAlign=top;childLayout=stackLayout;horizontal=1;startSize=26;horizontalStack=0;resizeParent=1;resizeParentMax=0;resizeLast=0;collapsible=1;marginBottom=0;" vertex="1" parent="1">
          <mxGeometry x="1090" y="380" width="160" height="60" as="geometry" />
        </mxCell>
        <mxCell id="HHhCgAAwEOyWhu86Y_bV-28" value="" style="line;strokeWidth=1;fillColor=none;align=left;verticalAlign=middle;spacingTop=-1;spacingLeft=3;spacingRight=3;rotatable=0;labelPosition=right;points=[];portConstraint=eastwest;" vertex="1" parent="HHhCgAAwEOyWhu86Y_bV-27">
          <mxGeometry y="26" width="160" height="8" as="geometry" />
        </mxCell>
        <mxCell id="HHhCgAAwEOyWhu86Y_bV-29" value="+ view(type): string" style="text;strokeColor=none;fillColor=none;align=left;verticalAlign=top;spacingLeft=4;spacingRight=4;overflow=hidden;rotatable=0;points=[[0,0.5],[1,0.5]];portConstraint=eastwest;" vertex="1" parent="HHhCgAAwEOyWhu86Y_bV-27">
          <mxGeometry y="34" width="160" height="26" as="geometry" />
        </mxCell>
        <mxCell id="HHhCgAAwEOyWhu86Y_bV-30" value="+ view(): string" style="text;strokeColor=none;fillColor=none;align=left;verticalAlign=top;spacingLeft=4;spacingRight=4;overflow=hidden;rotatable=0;points=[[0,0.5],[1,0.5]];portConstraint=eastwest;" vertex="1" parent="1">
          <mxGeometry x="960" y="790" width="100" height="26" as="geometry" />
        </mxCell>
        <mxCell id="HHhCgAAwEOyWhu86Y_bV-31" value="+ print(): string" style="text;strokeColor=none;fillColor=none;align=left;verticalAlign=top;spacingLeft=4;spacingRight=4;overflow=hidden;rotatable=0;points=[[0,0.5],[1,0.5]];portConstraint=eastwest;" vertex="1" parent="1">
          <mxGeometry x="727" y="790" width="100" height="26" as="geometry" />
        </mxCell>
        <mxCell id="HHhCgAAwEOyWhu86Y_bV-32" value="" style="endArrow=block;dashed=1;endFill=0;endSize=12;html=1;rounded=0;edgeStyle=orthogonalEdgeStyle;entryX=0.5;entryY=0;entryDx=0;entryDy=0;exitX=0.493;exitY=1.038;exitDx=0;exitDy=0;exitPerimeter=0;" edge="1" parent="1" source="HHhCgAAwEOyWhu86Y_bV-20" target="HHhCgAAwEOyWhu86Y_bV-2">
          <mxGeometry width="160" relative="1" as="geometry">
            <mxPoint x="490" y="460" as="sourcePoint" />
            <mxPoint x="650" y="460" as="targetPoint" />
          </mxGeometry>
        </mxCell>
        <mxCell id="HHhCgAAwEOyWhu86Y_bV-33" value="" style="endArrow=block;dashed=1;endFill=0;endSize=12;html=1;rounded=0;edgeStyle=orthogonalEdgeStyle;exitX=0.465;exitY=1.008;exitDx=0;exitDy=0;exitPerimeter=0;entryX=0.5;entryY=0;entryDx=0;entryDy=0;" edge="1" parent="1" source="HHhCgAAwEOyWhu86Y_bV-26" target="HHhCgAAwEOyWhu86Y_bV-2">
          <mxGeometry width="160" relative="1" as="geometry">
            <mxPoint x="940" y="500" as="sourcePoint" />
            <mxPoint x="1100" y="500" as="targetPoint" />
          </mxGeometry>
        </mxCell>
        <mxCell id="HHhCgAAwEOyWhu86Y_bV-34" value="" style="endArrow=block;dashed=1;endFill=0;endSize=12;html=1;rounded=0;edgeStyle=orthogonalEdgeStyle;exitX=0.485;exitY=0.977;exitDx=0;exitDy=0;exitPerimeter=0;entryX=0.5;entryY=0;entryDx=0;entryDy=0;" edge="1" parent="1" source="HHhCgAAwEOyWhu86Y_bV-23" target="HHhCgAAwEOyWhu86Y_bV-1">
          <mxGeometry width="160" relative="1" as="geometry">
            <mxPoint x="680" y="490" as="sourcePoint" />
            <mxPoint x="840" y="490" as="targetPoint" />
            <Array as="points">
              <mxPoint x="688" y="520" />
              <mxPoint x="1010" y="520" />
            </Array>
          </mxGeometry>
        </mxCell>
        <mxCell id="HHhCgAAwEOyWhu86Y_bV-35" value="" style="endArrow=block;dashed=1;endFill=0;endSize=12;html=1;rounded=0;edgeStyle=orthogonalEdgeStyle;" edge="1" parent="1">
          <mxGeometry width="160" relative="1" as="geometry">
            <mxPoint x="1170" y="440" as="sourcePoint" />
            <mxPoint x="1010" y="700" as="targetPoint" />
            <Array as="points">
              <mxPoint x="1170" y="520" />
              <mxPoint x="1010" y="520" />
            </Array>
          </mxGeometry>
        </mxCell>
        <mxCell id="HHhCgAAwEOyWhu86Y_bV-39" value="Client code" style="html=1;" vertex="1" parent="1">
          <mxGeometry x="220" y="285" width="110" height="50" as="geometry" />
        </mxCell>
        <mxCell id="HHhCgAAwEOyWhu86Y_bV-40" value="dispatch" style="html=1;verticalAlign=bottom;endArrow=block;rounded=0;edgeStyle=orthogonalEdgeStyle;" edge="1" parent="1">
          <mxGeometry width="80" relative="1" as="geometry">
            <mxPoint x="330" y="310" as="sourcePoint" />
            <mxPoint x="410" y="310" as="targetPoint" />
          </mxGeometry>
        </mxCell>
      </root>
    </mxGraphModel>
  </diagram>
</mxfile>
